<svg width="26" height="26" viewBox="0 0 26 26" fill="none" xmlns="http://www.w3.org/2000/svg">
<path fill-rule="evenodd" clip-rule="evenodd" d="M9.76402 1.625C7.60539 1.625 5.53517 2.48256 4.00879 4.00904C2.48241 5.53552 1.6249 7.60586 1.6249 9.76462C1.6249 11.9234 2.48241 13.9937 4.00879 15.5202C5.53517 17.0467 7.60539 17.9042 9.76402 17.9042V19.5292C7.17444 19.5292 4.69092 18.5005 2.85981 16.6693C1.02871 14.838 0 12.3544 0 9.76462C0 7.17489 1.02871 4.69122 2.85981 2.85999C4.69092 1.02877 7.17444 1.35226e-07 9.76402 1.35226e-07V1.625ZM17.9048 9.76462C17.9048 8.69558 17.6942 7.637 17.285 6.64935C16.8759 5.6617 16.2763 4.76432 15.5203 4.00847C14.7643 3.25261 13.8669 2.65308 12.8792 2.24413C11.8915 1.83517 10.833 1.62479 9.76402 1.625V1.35226e-07C11.0464 -0.000213286 12.3162 0.252199 13.501 0.742822C14.6859 1.23344 15.7624 1.95267 16.6693 2.85942C17.5761 3.76617 18.2955 4.84268 18.7863 6.02749C19.277 7.21229 19.5297 8.48218 19.5297 9.76462H17.9048ZM11.3889 10.5771L10.5765 11.3896V25.1875L11.3889 26H25.1876L26 25.1875V11.388L25.1876 10.5755H11.3873L11.3889 10.5771ZM12.2014 24.3766V12.2005H24.3751V24.3766H12.2014Z" fill="#28A263"/>
</svg>
