<svg width="34" height="43" viewBox="0 0 34 43" fill="none" xmlns="http://www.w3.org/2000/svg">
<path fill-rule="evenodd" clip-rule="evenodd" d="M16.5411 3.43661C8.55442 3.43661 2.07885 11.6228 2.07885 21.718C2.07885 31.8143 8.5535 39.9994 16.5411 39.9994C24.5288 39.9994 31.0044 31.8143 31.0044 21.718C31.0044 11.6228 24.5288 3.43661 16.5411 3.43661ZM0.0129395 21.7191C0.0129395 10.181 7.41281 0.827637 16.5421 0.827637C25.6713 0.827637 33.0712 10.181 33.0712 21.7191C33.0712 33.2584 25.6713 42.6118 16.5421 42.6118C7.41373 42.6118 0.0129395 33.2584 0.0129395 21.7191ZM12.4928 15.2008C13.2033 14.3524 14.1443 13.8811 15.1217 13.8841H15.5096V8.66036H17.5755V13.8841H18.0046C18.7405 13.9211 19.4523 14.2253 20.0549 14.7603L20.8985 15.5137L19.7074 17.6475L18.8638 16.8941C18.591 16.6536 18.2699 16.5153 17.9377 16.4954H15.1208C14.6605 16.4954 14.2277 16.7156 13.9159 17.0911C13.7679 17.2657 13.6495 17.4767 13.5682 17.711C13.4868 17.9454 13.4442 18.1982 13.4427 18.4542C13.4427 18.9525 13.606 19.444 13.9159 19.8172C14.2277 20.1915 14.6605 20.4129 15.1208 20.4129H17.9624C18.9399 20.4129 19.8862 20.88 20.5923 21.7296C20.943 22.1479 21.2227 22.6521 21.4144 23.2114C21.6061 23.7707 21.7057 24.3735 21.7073 24.983C21.7057 25.5925 21.6061 26.1953 21.4144 26.7546C21.2227 27.3139 20.943 27.818 20.5923 28.2364C19.8816 29.085 18.9402 29.5564 17.9624 29.553H17.5746V34.7768H15.5086V29.553H15.0786C14.3428 29.516 13.6309 29.2118 13.0283 28.6768L12.1847 27.9234L13.3758 25.7897L14.2194 26.543C14.4844 26.7783 14.8063 26.9197 15.1455 26.9417H17.9624C18.4228 26.9417 18.8556 26.7215 19.1673 26.346C19.4773 25.9728 19.6405 25.4814 19.6405 24.983C19.6405 24.4846 19.4773 23.9932 19.1673 23.62C18.8407 23.2341 18.4095 23.0209 17.9624 23.0242H15.1208C14.1431 23.0276 13.2017 22.5562 12.4909 21.7076C12.1402 21.2892 11.8605 20.785 11.6688 20.2257C11.4771 19.6664 11.3775 19.0637 11.3759 18.4542C11.3759 17.221 11.784 16.0515 12.4909 15.2008H12.4928Z" fill="white"/>
</svg>
