<svg width="24" height="24" viewBox="0 0 24 24" fill="none" xmlns="http://www.w3.org/2000/svg">
<path fill-rule="evenodd" clip-rule="evenodd" d="M11.9998 0.537109C8.8864 0.537109 8.4966 0.549849 7.274 0.605889C6.0538 0.661929 5.2202 0.855519 4.4911 1.1389C3.72628 1.4267 3.03346 1.87786 2.46092 2.46093C1.87797 3.03355 1.42683 3.72635 1.1389 4.49109C0.855519 5.22024 0.661289 6.05383 0.605889 7.2746C0.550479 8.49665 0.537109 8.88574 0.537109 11.9998C0.537109 15.1138 0.549849 15.5029 0.605889 16.7256C0.661919 17.9457 0.855519 18.7793 1.1389 19.5085C1.4267 20.2733 1.87786 20.9661 2.46092 21.5386C3.09774 22.1754 3.73774 22.5677 4.4911 22.8607C5.2202 23.144 6.0538 23.3383 7.274 23.3937C8.4966 23.4491 8.8864 23.4624 11.9998 23.4624C15.1131 23.4624 15.5029 23.4497 16.7255 23.3937C17.9457 23.3376 18.7793 23.144 19.5084 22.8607C20.2732 22.5728 20.966 22.1217 21.5386 21.5386C22.1754 20.9018 22.5677 20.2618 22.8606 19.5085C23.144 18.7793 23.3382 17.9457 23.3936 16.7256C23.449 15.5029 23.4624 15.1132 23.4624 11.9998C23.4624 8.88638 23.4497 8.49665 23.3936 7.27397C23.3376 6.05383 23.144 5.22024 22.8606 4.49109C22.5728 3.72629 22.1216 3.03347 21.5386 2.46093C20.966 1.87798 20.2732 1.42683 19.5084 1.1389C18.7793 0.855519 17.9457 0.661289 16.7249 0.605889C15.5029 0.550489 15.1138 0.537109 11.9998 0.537109ZM11.9992 15.8256C11.497 15.8256 10.9996 15.7267 10.5356 15.5345C10.0715 15.3423 9.6499 15.0605 9.2947 14.7054C8.9396 14.3502 8.6579 13.9286 8.4657 13.4646C8.2734 13.0005 8.1745 12.5032 8.1745 12.0009C8.1745 11.4986 8.2734 11.0013 8.4657 10.5373C8.6579 10.0732 8.9396 9.65156 9.2947 9.29636C9.6499 8.94125 10.0715 8.65952 10.5356 8.46731C10.9996 8.2751 11.497 8.17617 11.9992 8.17617C13.0136 8.17617 13.9864 8.57913 14.7037 9.29636C15.421 10.0137 15.8239 10.9865 15.8239 12.0009C15.8239 13.0153 15.421 13.9881 14.7037 14.7054C13.9864 15.4227 13.0136 15.8256 11.9992 15.8256ZM11.9992 6.10908C10.4366 6.10908 8.938 6.72982 7.8331 7.83474C6.7282 8.93967 6.1074 10.4383 6.1074 12.0009C6.1074 13.5635 6.7282 15.0621 7.8331 16.167C8.938 17.272 10.4366 17.8927 11.9992 17.8927C13.5618 17.8927 15.0604 17.272 16.1654 16.167C17.2703 15.0621 17.891 13.5635 17.891 12.0009C17.891 10.4383 17.2703 8.93967 16.1654 7.83474C15.0604 6.72982 13.5618 6.10908 11.9992 6.10908ZM19.6053 6.00209C19.6053 6.37146 19.4586 6.7257 19.1974 6.98689C18.9362 7.24807 18.582 7.3948 18.2126 7.3948C17.8432 7.3948 17.489 7.24807 17.2278 6.98689C16.9666 6.7257 16.8199 6.37146 16.8199 6.00209C16.8199 5.63272 16.9666 5.27848 17.2278 5.01729C17.489 4.75611 17.8432 4.60938 18.2126 4.60938C18.582 4.60938 18.9362 4.75611 19.1974 5.01729C19.4586 5.27848 19.6053 5.63272 19.6053 6.00209Z" fill="#1E2330"/>
</svg>
