<svg width="22" height="25" viewBox="0 0 22 25" fill="none" xmlns="http://www.w3.org/2000/svg">
<path d="M15.7548 16.5835V7.62991C17.4787 8.86738 19.5948 9.59908 21.8774 9.59908V6.17831C20.5578 5.89877 19.3987 5.18484 18.5427 4.20318C17.1636 3.3049 16.171 1.86518 15.8559 0.1875H12.6342L12.6282 17.8388C12.5569 19.8139 10.9282 21.4024 8.9369 21.4024C7.7005 21.4024 6.6127 20.7896 5.9351 19.8615C4.7581 19.2368 3.94971 18.0054 3.94971 16.5835C3.94971 14.543 5.6081 12.8831 7.647 12.8831C8.0274 12.8831 8.396 12.9485 8.7407 13.0556V9.60504C4.3658 9.70024 0.834961 13.2936 0.834961 17.702C0.834961 19.8318 1.6612 21.7712 3.01053 23.2228C4.3242 24.1449 5.9291 24.6923 7.6529 24.6923C12.117 24.6923 15.7548 21.0514 15.7548 16.5835Z" fill="#1E2330"/>
</svg>
