<svg width="14" height="13" viewBox="0 0 14 13" fill="none" xmlns="http://www.w3.org/2000/svg">
<g clip-path="url(#clip0_222_630)">
<path d="M1.27317 2.60059H13.3641L11.455 9.10059H3.18226L1.27317 2.60059ZM1.27317 2.60059L0.795898 0.975586M6.36408 11.3756C6.36408 11.6342 6.26351 11.8822 6.0845 12.065C5.90549 12.2479 5.6627 12.3506 5.40953 12.3506C5.15637 12.3506 4.91358 12.2479 4.73457 12.065C4.55556 11.8822 4.45499 11.6342 4.45499 11.3756M10.1823 11.3756C10.1823 11.6342 10.0817 11.8822 9.90268 12.065C9.72367 12.2479 9.48088 12.3506 9.22772 12.3506C8.97456 12.3506 8.73176 12.2479 8.55275 12.065C8.37374 11.8822 8.27317 11.6342 8.27317 11.3756" stroke="white" stroke-width="0.8" stroke-linecap="round" stroke-linejoin="round"/>
</g>
<defs>
<clipPath id="clip0_222_630">
<rect width="14" height="13" fill="white" transform="translate(0.000488281 0.000976562)"/>
</clipPath>
</defs>
</svg>
