<svg width="16" height="16" viewBox="0 0 16 16" fill="none" xmlns="http://www.w3.org/2000/svg">
<g clip-path="url(#clip0_195_451)">
<path d="M6.41671 15.3692H14.2262M12.2739 4.63107L13.25 5.60726M13.7381 2.1906C13.9306 2.3828 14.0833 2.61106 14.1874 2.86231C14.2916 3.11357 14.3452 3.38289 14.3452 3.65488C14.3452 3.92687 14.2916 4.1962 14.1874 4.44745C14.0833 4.6987 13.9306 4.92696 13.7381 5.11917L4.46433 14.393L0.55957 15.3692L1.53576 11.5191L10.8135 2.1945C11.1792 1.82704 11.6696 1.61051 12.1876 1.5879C12.7055 1.5653 13.213 1.73827 13.6093 2.07248L13.7381 2.1906Z" stroke="#9EA099" stroke-width="0.976191" stroke-linecap="round" stroke-linejoin="round"/>
</g>
<defs>
<clipPath id="clip0_195_451">
<rect width="15.619" height="15.619" fill="white" transform="translate(0.0715332 0.238281)"/>
</clipPath>
</defs>
</svg>
