<svg width="29" height="29" viewBox="0 0 29 29" fill="none" xmlns="http://www.w3.org/2000/svg">
<path d="M22.3594 0.556641H7.48438C3.86001 0.556641 0.921875 3.49477 0.921875 7.11914V21.9941C0.921875 25.6185 3.86001 28.5566 7.48438 28.5566H22.3594C25.9837 28.5566 28.9219 25.6185 28.9219 21.9941V7.11914C28.9219 3.49477 25.9837 0.556641 22.3594 0.556641Z" fill="url(#paint0_radial_133_1123)"/>
<path d="M22.3594 0.556641H7.48438C3.86001 0.556641 0.921875 3.49477 0.921875 7.11914V21.9941C0.921875 25.6185 3.86001 28.5566 7.48438 28.5566H22.3594C25.9837 28.5566 28.9219 25.6185 28.9219 21.9941V7.11914C28.9219 3.49477 25.9837 0.556641 22.3594 0.556641Z" fill="url(#paint1_radial_133_1123)"/>
<path d="M14.9229 3.61914C11.9525 3.61914 11.5796 3.63216 10.413 3.6852C9.24859 3.73858 8.45377 3.92287 7.75836 4.19336C7.03889 4.4727 6.42869 4.84644 5.82078 5.45456C5.21233 6.06258 4.83859 6.67278 4.55838 7.39192C4.28713 8.08755 4.10261 8.8827 4.05022 10.0466C3.99805 11.2133 3.98438 11.5862 3.98438 14.5568C3.98438 17.5273 3.9975 17.8989 4.05044 19.0655C4.10403 20.2299 4.28833 21.0247 4.55859 21.7202C4.83816 22.4396 5.21189 23.0498 5.82002 23.6577C6.42781 24.2662 7.03802 24.6408 7.75694 24.9201C8.45289 25.1906 9.24783 25.3749 10.412 25.4283C11.5787 25.4813 11.9513 25.4944 14.9215 25.4944C17.8923 25.4944 18.2639 25.4813 19.4305 25.4283C20.5949 25.3749 21.3906 25.1906 22.0866 24.9201C22.8057 24.6408 23.4151 24.2662 24.0227 23.6577C24.6312 23.0498 25.0048 22.4396 25.2852 21.7205C25.554 21.0247 25.7386 20.2297 25.7933 19.0657C25.8457 17.8991 25.8594 17.5273 25.8594 14.5568C25.8594 11.5862 25.8457 11.2135 25.7933 10.0468C25.7386 8.88237 25.554 8.08766 25.2852 7.39225C25.0048 6.67278 24.6312 6.06258 24.0227 5.45456C23.4144 4.84622 22.806 4.47248 22.0859 4.19347C21.3887 3.92287 20.5934 3.73847 19.429 3.6852C18.2623 3.63216 17.8909 3.61914 14.9195 3.61914H14.9229ZM13.9417 5.59019C14.2329 5.58975 14.5579 5.59019 14.9229 5.59019C17.8433 5.59019 18.1893 5.60069 19.3426 5.65308C20.409 5.70186 20.9878 5.88003 21.3734 6.02977C21.8838 6.22795 22.2477 6.46497 22.6303 6.84789C23.0131 7.2307 23.25 7.59525 23.4488 8.1057C23.5985 8.4907 23.7769 9.06952 23.8254 10.1359C23.8778 11.289 23.8892 11.6352 23.8892 14.5542C23.8892 17.4732 23.8778 17.8196 23.8254 18.9725C23.7767 20.039 23.5985 20.6178 23.4488 21.0029C23.2506 21.5133 23.0131 21.8768 22.6303 22.2594C22.2475 22.6422 21.884 22.8791 21.3734 23.0774C20.9883 23.2278 20.409 23.4055 19.3426 23.4543C18.1896 23.5067 17.8433 23.5181 14.9229 23.5181C12.0023 23.5181 11.6562 23.5067 10.5032 23.4543C9.43683 23.4051 8.85802 23.2269 8.47214 23.0772C7.9618 22.8789 7.59714 22.642 7.21433 22.2592C6.83152 21.8763 6.59461 21.5127 6.39587 21.002C6.24614 20.6169 6.06775 20.0381 6.01919 18.9717C5.9668 17.8186 5.9563 17.4724 5.9563 14.5515C5.9563 11.6306 5.9668 11.2862 6.01919 10.1332C6.06797 9.06678 6.24614 8.48797 6.39587 8.10242C6.59417 7.59197 6.83152 7.22742 7.21444 6.84461C7.59736 6.4618 7.9618 6.22478 8.47225 6.02616C8.8578 5.87577 9.43683 5.69803 10.5032 5.64903C11.5122 5.60342 11.9032 5.58975 13.9417 5.58745V5.59019ZM20.7613 7.40625C20.0367 7.40625 19.4488 7.99359 19.4488 8.71831C19.4488 9.44292 20.0367 10.0308 20.7613 10.0308C21.4859 10.0308 22.0738 9.44292 22.0738 8.71831C22.0738 7.9937 21.4859 7.40581 20.7613 7.40581V7.40625ZM14.9229 8.9398C11.821 8.9398 9.30602 11.4548 9.30602 14.5568C9.30602 17.6587 11.821 20.1725 14.9229 20.1725C18.0248 20.1725 20.5389 17.6587 20.5389 14.5568C20.5389 11.4549 18.0246 8.9398 14.9226 8.9398H14.9229ZM14.9229 10.9108C16.9363 10.9108 18.5688 12.543 18.5688 14.5568C18.5688 16.5702 16.9363 18.2027 14.9229 18.2027C12.9094 18.2027 11.2771 16.5702 11.2771 14.5568C11.2771 12.543 12.9093 10.9108 14.9229 10.9108Z" fill="white"/>
<defs>
<radialGradient id="paint0_radial_133_1123" cx="0" cy="0" r="1" gradientUnits="userSpaceOnUse" gradientTransform="translate(8.35937 30.7132) rotate(-90) scale(27.7501 25.8098)">
<stop stop-color="#FFDD55"/>
<stop offset="0.1" stop-color="#FFDD55"/>
<stop offset="0.5" stop-color="#FF543E"/>
<stop offset="1" stop-color="#C837AB"/>
</radialGradient>
<radialGradient id="paint1_radial_133_1123" cx="0" cy="0" r="1" gradientUnits="userSpaceOnUse" gradientTransform="translate(-3.76823 2.57362) rotate(78.681) scale(12.4044 51.1315)">
<stop stop-color="#3771C8"/>
<stop offset="0.128" stop-color="#3771C8"/>
<stop offset="1" stop-color="#6600FF" stop-opacity="0"/>
</radialGradient>
</defs>
</svg>
