<svg width="15" height="15" viewBox="0 0 15 15" fill="none" xmlns="http://www.w3.org/2000/svg">
<path fill-rule="evenodd" clip-rule="evenodd" d="M2.5 0.5H12.5C13.0304 0.5 13.5391 0.710714 13.9142 1.08579C14.2893 1.46086 14.5 1.96957 14.5 2.5V12.5C14.5 13.0304 14.2893 13.5391 13.9142 13.9142C13.5391 14.2893 13.0304 14.5 12.5 14.5H2.5C1.96957 14.5 1.46086 14.2893 1.08579 13.9142C0.710714 13.5391 0.5 13.0304 0.5 12.5V2.5C0.5 1.96957 0.710714 1.46086 1.08579 1.08579C1.46086 0.710714 1.96957 0.5 2.5 0.5Z" stroke="#9EA099" stroke-linecap="round" stroke-linejoin="round"/>
<path d="M14.5 10.5L11.5 7.5L8.5 10.485M12.5 14.5L3.5 5.5L0.5 8.5" stroke="#9EA099" stroke-linecap="round" stroke-linejoin="round"/>
<path d="M11 5C11.5523 5 12 4.55228 12 4C12 3.44772 11.5523 3 11 3C10.4477 3 10 3.44772 10 4C10 4.55228 10.4477 5 11 5Z" fill="#9EA099"/>
</svg>
