<svg width="28" height="21" viewBox="0 0 28 21" fill="none" xmlns="http://www.w3.org/2000/svg">
<path fill-rule="evenodd" clip-rule="evenodd" d="M24.6381 1.52958C25.819 1.8457 26.7472 2.77373 27.0632 3.95466C27.6345 6.09297 27.6368 10.557 27.6368 10.557C27.6368 10.557 27.6368 15.0211 27.0632 17.1594C26.7472 18.3403 25.819 19.2683 24.6381 19.5844C22.4999 20.1579 13.9217 20.1579 13.9217 20.1579C13.9217 20.1579 5.3437 20.1579 3.20538 19.5844C2.02447 19.2683 1.09643 18.3403 0.780315 17.1594C0.206787 15.0211 0.206787 10.557 0.206787 10.557C0.206787 10.557 0.206787 6.09297 0.780315 3.95466C1.09643 2.77373 2.02447 1.8457 3.20538 1.52958C5.3437 0.956055 13.9217 0.956055 13.9217 0.956055C13.9217 0.956055 22.4999 0.956055 24.6381 1.52958ZM18.3024 10.5574L11.1762 14.6714V6.44331L18.3024 10.5574Z" fill="#FF0000"/>
<path d="M11.1762 14.6714L18.3024 10.5574L11.1762 6.44331V14.6714Z" fill="white"/>
</svg>
